<svg id="Layer_1" data-name="Layer 1" xmlns="http://www.w3.org/2000/svg" xmlns:xlink="http://www.w3.org/1999/xlink" viewBox="0 0 252 144"><defs><style>.cls-1{fill:none;stroke:#fff;stroke-miterlimit:10;}.cls-2{fill:#fff;}.cls-3{fill:#e5221c;}.cls-4{clip-path:url(#clip-path);}</style><clipPath id="clip-path"><rect class="cls-1" x="103.39" y="56.56" width="45.23" height="30.87"/></clipPath></defs><path class="cls-2" d="M-9-9V153H261V-9ZM252,144H0V0H252Z"/><rect class="cls-3" x="-9" y="-9" width="270" height="162"/><path class="cls-1" d="M122.65,59.36s0,0,0,0a1,1,0,0,1,.39.55,1.73,1.73,0,0,1,.11.32.9.9,0,0,0,0-.8,2.47,2.47,0,0,0-.85-.71,2.67,2.67,0,0,0,.13,1.11,1,1,0,0,0,.67.46,1.82,1.82,0,0,0-.44-.9Z"/><path class="cls-1" d="M123.74,58.94a1.57,1.57,0,0,0-.46,1.24l.24-.39a2.57,2.57,0,0,1,1-.79s0,0,0,0a2.6,2.6,0,0,0-1,.92c-.07.13-.14.26-.2.39a1.62,1.62,0,0,0,1.34-.39,4.56,4.56,0,0,0,.78-1.73,4.21,4.21,0,0,0-1.76.71Z"/><path class="cls-1" d="M131.91,66.08h-.31a14.8,14.8,0,0,1-1.28,6.36,4.49,4.49,0,0,1-2.38,2.48c-1.13.36-2.16-.61-2.75-1.47a6.83,6.83,0,0,1-.59-1,14.72,14.72,0,0,1-1.29-6.33c.06-.09.15-.2.26-.34a.05.05,0,0,1,0,0,.85.85,0,0,0,.16-.55l-.06-1c0-.53,0-1.06-.09-1.59,0,0,0-.08-.06-.12a.56.56,0,0,0,0,.12c0,.21,0,.42,0,.63,0,.41,0,.82,0,1.22a.18.18,0,0,1,0,.1s-.06,0-.07,0a.2.2,0,0,1,0-.11l0-1.78a.49.49,0,0,0,0-.12s0,0-.06,0,0,0,0,0a.25.25,0,0,0,0,.08l-.06,1.76a.61.61,0,0,1,0,.14.08.08,0,0,1-.06,0s-.05,0-.06,0,0-.06,0-.09c0-.59,0-1.18-.07-1.78a1.1,1.1,0,0,0,0-.16l-.06,0a.66.66,0,0,0,0,.14c0,.59,0,1.19,0,1.78a.25.25,0,0,1,0,.09s0,0,0,0a.1.1,0,0,1-.08,0,.49.49,0,0,1,0-.12l-.06-1.79s0-.08-.06-.12a.61.61,0,0,0,0,.12c0,.73-.06,1.46-.13,2.19a1.53,1.53,0,0,0,.38,1.32l0,0A15.36,15.36,0,0,0,124,72.58a5,5,0,0,0,2.34,2.55,3.07,3.07,0,0,0,1.87.11,3.24,3.24,0,0,0,1.3-.74,6.45,6.45,0,0,0,1.36-1.92,15.18,15.18,0,0,0,1.32-6.5Z"/><path class="cls-1" d="M128.46,69.79c-.07-.08-.12-.16-.18-.24a.76.76,0,0,1-.08-.11A15.13,15.13,0,0,0,126.88,63a7,7,0,0,0-1.08-1.64,3.44,3.44,0,0,0-1.28-.92,3,3,0,0,0-2-.06,3.18,3.18,0,0,0-.9.5l-.23.19a6.09,6.09,0,0,0-1.14,1.48L120,63a15.15,15.15,0,0,0-1.31,6.5h.6a14.8,14.8,0,0,1,1.29-6.36,6.13,6.13,0,0,1,1.1-1.64,2.92,2.92,0,0,1,1.27-.84,1.58,1.58,0,0,1,.61-.08,1.79,1.79,0,0,1,.59.16,3.18,3.18,0,0,1,.64.38A5.09,5.09,0,0,1,126,62.44c.13.21.24.43.35.65a14.88,14.88,0,0,1,1.29,6.3,1.92,1.92,0,0,1-.33.49,1.82,1.82,0,0,0-.48,1.28c0,.23,0,.46.08.68a3.16,3.16,0,0,0,.13.53,1.88,1.88,0,0,0,.47.81.54.54,0,0,0,.84,0,2.41,2.41,0,0,0,.36-.52,3.54,3.54,0,0,0,.31-1.28,2,2,0,0,0-.52-1.6Z"/><polygon class="cls-1" points="104.37 86.56 107.91 86.56 107.91 87.33 103.39 87.33 103.39 80.07 104.37 80.07 104.37 86.56 104.37 86.56"/><polygon class="cls-1" points="112.96 83.97 109.98 83.97 109.98 86.56 113.47 86.56 113.47 87.33 109 87.33 109 80.07 113.42 80.07 113.42 80.85 109.98 80.85 109.98 83.19 112.96 83.19 112.96 83.97 112.96 83.97"/><polygon class="cls-1" points="119.71 80.85 117.32 80.85 117.32 87.33 116.33 87.33 116.33 80.85 113.97 80.85 113.97 80.07 119.71 80.07 119.71 80.85 119.71 80.85"/><polygon class="cls-1" points="121.68 81.03 121.17 82.76 120.69 82.76 120.7 81.05 120.7 80.07 121.68 80.07 121.68 81.03 121.68 81.03"/><path class="cls-1" d="M127.18,85.5a1.05,1.05,0,0,0-.35-.82,2.8,2.8,0,0,0-1.25-.57,4.24,4.24,0,0,1-1.72-.81,1.69,1.69,0,0,1-.63-1.34,1.81,1.81,0,0,1,.67-1.42,2.6,2.6,0,0,1,1.74-.57,2.53,2.53,0,0,1,1.82.65,2,2,0,0,1,.67,1.52l0,0h-.94a1.32,1.32,0,0,0-.43-1,1.54,1.54,0,0,0-1.1-.41,1.5,1.5,0,0,0-1.06.34,1.12,1.12,0,0,0-.36.86,1,1,0,0,0,.4.79,3.73,3.73,0,0,0,1.3.56,3.69,3.69,0,0,1,1.67.84,1.83,1.83,0,0,1,.58,1.36,1.66,1.66,0,0,1-.7,1.41,2.84,2.84,0,0,1-1.8.54,3,3,0,0,1-1.85-.59,1.78,1.78,0,0,1-.78-1.58v0H124a1.24,1.24,0,0,0,.52,1.06,2,2,0,0,0,1.17.37,1.83,1.83,0,0,0,1.11-.31,1,1,0,0,0,.4-.86Z"/><polygon class="cls-1" points="136.06 83.97 133.08 83.97 133.08 86.56 136.57 86.56 136.57 87.33 132.09 87.33 132.09 80.07 136.51 80.07 136.51 80.85 133.08 80.85 133.08 83.19 136.06 83.19 136.06 83.97 136.06 83.97"/><g class="cls-4"><path class="cls-1" d="M139,84.64h2.17l-1.06-3.12h0L139,84.64Zm2.45.82h-2.73l-.65,1.87h-1l2.62-7.26h.84l2.57,7.26h-1l-.64-1.87Z"/><polygon class="cls-1" points="148.62 80.85 146.22 80.85 146.22 87.33 145.24 87.33 145.24 80.85 142.88 80.85 142.88 80.07 148.62 80.07 148.62 80.85 148.62 80.85"/></g><rect class="cls-1" x="103.39" y="56.56" width="45.23" height="30.87"/><path class="cls-1" d="M125.45,77a10.22,10.22,0,1,1,4-19.62.22.22,0,0,1,.12.29.22.22,0,0,1-.3.12,9.66,9.66,0,0,0-3.8-.76,9.77,9.77,0,1,0,7.93,4.06.22.22,0,0,1,.05-.31.23.23,0,0,1,.32,0A10.21,10.21,0,0,1,125.45,77Z"/><path class="cls-1" d="M132.92,60.37a.25.25,0,0,1-.17-.08c-.22-.24-.45-.48-.69-.7a.23.23,0,1,1,.3-.34c.26.24.5.49.73.74a.23.23,0,0,1,0,.32.22.22,0,0,1-.15.06Z"/></svg>