<svg id="Layer_1" data-name="Layer 1" xmlns="http://www.w3.org/2000/svg" xmlns:xlink="http://www.w3.org/1999/xlink" viewBox="0 0 252 144"><defs><style>.cls-1{fill:none;}.cls-2{fill:#891812;}.cls-10,.cls-12,.cls-14,.cls-3{fill:#fff;}.cls-4{fill:#020202;}.cls-5{fill:#18a238;}.cls-6{fill:#606d26;}.cls-7{fill:#e30d15;}.cls-8{clip-path:url(#clip-path);}.cls-9{fill:#e5221c;}.cls-10{font-size:11px;font-family:Roboto-Medium, Roboto;font-weight:500;}.cls-11{letter-spacing:-0.01em;}.cls-12{font-size:8px;}.cls-12,.cls-14{font-family:Roboto-Regular, Roboto;}.cls-13{letter-spacing:-0.02em;}.cls-14{font-size:6px;}.cls-15{letter-spacing:-0.01em;}.cls-16{letter-spacing:-0.01em;}.cls-17{letter-spacing:-0.06em;}.cls-18{letter-spacing:-0.06em;}</style><clipPath id="clip-path"><rect class="cls-1" x="14.23" y="56.56" width="45.23" height="30.87"/></clipPath></defs><path class="cls-2" d="M90,38.21H71.93L87.51,59.1Z"/><path class="cls-3" d="M-9-9V153H261V-9ZM252,144H0V0H252Z"/><polygon class="cls-4" points="261 153 90.64 153.29 110.07 -8.71 261 -9 261 153"/><path class="cls-5" d="M33.5,59.36s0,0,0,0a1.1,1.1,0,0,1,.39.55,3,3,0,0,1,.11.32.93.93,0,0,0,0-.8,2.47,2.47,0,0,0-.85-.71,2.61,2.61,0,0,0,.12,1.11,1,1,0,0,0,.67.46,1.89,1.89,0,0,0-.43-.9Z"/><path class="cls-5" d="M34.59,58.94a1.57,1.57,0,0,0-.46,1.24,4.11,4.11,0,0,1,.24-.39,2.43,2.43,0,0,1,1-.79s.05,0,0,0a2.5,2.5,0,0,0-1,.92c-.07.13-.14.26-.2.39A1.6,1.6,0,0,0,35.56,60a4.56,4.56,0,0,0,.78-1.73,4.18,4.18,0,0,0-1.75.71Z"/><path class="cls-5" d="M42.75,66.08h-.3a14.8,14.8,0,0,1-1.29,6.36,4.44,4.44,0,0,1-2.37,2.48c-1.13.36-2.16-.61-2.76-1.47a7.77,7.77,0,0,1-.58-1,14.72,14.72,0,0,1-1.29-6.33l.25-.34,0,0a.91.91,0,0,0,.16-.55c0-.35,0-.69-.06-1l-.09-1.59s0-.08-.06-.12a.61.61,0,0,0,0,.12c0,.21,0,.42,0,.63,0,.41,0,.82,0,1.22a.18.18,0,0,1,0,.1s-.07,0-.07,0a.2.2,0,0,1,0-.11l0-1.78a.49.49,0,0,0,0-.12.15.15,0,0,0-.06,0s0,0,0,0a.21.21,0,0,0,0,.08l-.06,1.76a.32.32,0,0,1,0,.14s0,0-.06,0,0,0-.05,0a.25.25,0,0,1,0-.09l-.06-1.78a1.1,1.1,0,0,0,0-.16l-.07,0c0,.05,0,.09,0,.14l0,1.78a.25.25,0,0,1,0,.09.07.07,0,0,1-.06,0,.1.1,0,0,1-.07,0,.49.49,0,0,1,0-.12l-.06-1.79a.67.67,0,0,0-.06-.12.31.31,0,0,0,0,.12c-.05.73-.07,1.46-.14,2.19a1.54,1.54,0,0,0,.39,1.32l0,0a15.06,15.06,0,0,0,1.32,6.48,5,5,0,0,0,2.34,2.55,3.07,3.07,0,0,0,1.87.11,3.24,3.24,0,0,0,1.3-.74,6.64,6.64,0,0,0,1.36-1.92,15.18,15.18,0,0,0,1.32-6.5Z"/><path class="cls-6" d="M39.31,69.79l-.19-.24-.07-.11A15.13,15.13,0,0,0,37.73,63a6.69,6.69,0,0,0-1.09-1.64,3.4,3.4,0,0,0-1.27-.92,2.87,2.87,0,0,0-2.9.44l-.24.19A6.05,6.05,0,0,0,31.1,62.5l-.24.45a15.15,15.15,0,0,0-1.32,6.5h.61a14.8,14.8,0,0,1,1.29-6.36,6.13,6.13,0,0,1,1.1-1.64,2.92,2.92,0,0,1,1.27-.84,1.53,1.53,0,0,1,.6-.08,1.72,1.72,0,0,1,.59.16,2.92,2.92,0,0,1,.64.38,5,5,0,0,1,1.17,1.37c.12.21.24.43.34.65a14.73,14.73,0,0,1,1.29,6.3,1.92,1.92,0,0,1-.33.49,1.86,1.86,0,0,0-.47,1.28c0,.23,0,.46.07.68a4.56,4.56,0,0,0,.13.53,1.81,1.81,0,0,0,.48.81.53.53,0,0,0,.83,0,2.14,2.14,0,0,0,.37-.52,3.54,3.54,0,0,0,.31-1.28,2.12,2.12,0,0,0-.52-1.6Z"/><polygon class="cls-7" points="15.21 86.56 18.75 86.56 18.75 87.33 14.23 87.33 14.23 80.07 15.21 80.07 15.21 86.56 15.21 86.56"/><polygon class="cls-7" points="23.81 83.97 20.83 83.97 20.83 86.56 24.32 86.56 24.32 87.33 19.85 87.33 19.85 80.07 24.26 80.07 24.26 80.85 20.83 80.85 20.83 83.19 23.81 83.19 23.81 83.97 23.81 83.97"/><polygon class="cls-7" points="30.56 80.85 28.16 80.85 28.16 87.33 27.18 87.33 27.18 80.85 24.82 80.85 24.82 80.07 30.56 80.07 30.56 80.85 30.56 80.85"/><polygon class="cls-7" points="32.53 81.03 32.02 82.76 31.54 82.76 31.54 81.05 31.54 80.07 32.53 80.07 32.53 81.03 32.53 81.03"/><path class="cls-7" d="M38,85.5a1.09,1.09,0,0,0-.35-.82,2.86,2.86,0,0,0-1.25-.57,4.36,4.36,0,0,1-1.73-.81A1.71,1.71,0,0,1,34.08,82a1.78,1.78,0,0,1,.67-1.42,2.91,2.91,0,0,1,3.56.08A1.92,1.92,0,0,1,39,82.14v0H38a1.32,1.32,0,0,0-.43-1,1.57,1.57,0,0,0-1.11-.41,1.48,1.48,0,0,0-1,.34,1.13,1.13,0,0,0-.37.86,1,1,0,0,0,.4.79,3.8,3.8,0,0,0,1.31.56,3.69,3.69,0,0,1,1.67.84A1.82,1.82,0,0,1,39,85.49a1.68,1.68,0,0,1-.69,1.41,2.84,2.84,0,0,1-1.8.54,3.1,3.1,0,0,1-1.86-.59,1.8,1.8,0,0,1-.78-1.58v0h.94a1.22,1.22,0,0,0,.52,1.06,1.92,1.92,0,0,0,1.17.37,1.82,1.82,0,0,0,1.1-.31A1,1,0,0,0,38,85.5Z"/><polygon class="cls-7" points="46.9 83.97 43.92 83.97 43.92 86.56 47.41 86.56 47.41 87.33 42.94 87.33 42.94 80.07 47.36 80.07 47.36 80.85 43.92 80.85 43.92 83.19 46.9 83.19 46.9 83.97 46.9 83.97"/><g class="cls-8"><path class="cls-7" d="M49.88,84.64H52l-1-3.12h0l-1.08,3.12Zm2.44.82H49.59l-.65,1.87h-1l2.62-7.26h.84L54,87.33H53l-.64-1.87Z"/><polygon class="cls-7" points="59.46 80.85 57.07 80.85 57.07 87.33 56.09 87.33 56.09 80.85 53.73 80.85 53.73 80.07 59.46 80.07 59.46 80.85 59.46 80.85"/></g><path class="cls-7" d="M36.3,77a10.22,10.22,0,1,1,4-19.62.23.23,0,0,1,.12.29.23.23,0,0,1-.3.12A9.66,9.66,0,0,0,36.3,57a9.74,9.74,0,1,0,7.93,4.06.22.22,0,0,1,.05-.31.23.23,0,0,1,.32,0A10.22,10.22,0,0,1,36.3,77Z"/><path class="cls-7" d="M43.77,60.37a.21.21,0,0,1-.17-.08,9.25,9.25,0,0,0-.7-.7.23.23,0,0,1,.31-.34c.25.24.5.49.72.74a.22.22,0,0,1,0,.32.24.24,0,0,1-.15.06Z"/><polygon class="cls-9" points="95.72 -9.32 110.07 -8.71 90.64 153.29 76.29 152.68 95.72 -9.32"/><rect class="cls-9" x="71.93" y="-9" width="189.07" height="47.21"/><text class="cls-10" transform="translate(135.61 17.86)">JONE SM<tspan class="cls-11" x="46.74" y="0">I</tspan><tspan x="49.69" y="0">TH</tspan></text><text class="cls-12" transform="translate(135.85 28.29)">G<tspan class="cls-13" x="5.45" y="0">r</tspan><tspan x="8" y="0">aphic Designer</tspan></text><text class="cls-14" transform="translate(135.68 67.22)">01711802800</text><text class="cls-14" transform="translate(135.68 73.93)">01992006262</text><path class="cls-3" d="M132,67.63a2.27,2.27,0,0,1-.53-.12,4.21,4.21,0,0,1-1.21-.67,5.45,5.45,0,0,1-1.31-1.4,3.38,3.38,0,0,1-.52-1.18,1.06,1.06,0,0,1,0-.19.34.34,0,0,1,0-.22,4,4,0,0,1,.43-.59,2.59,2.59,0,0,1,.37-.37l.06,0a.3.3,0,0,1,.45.07,6.2,6.2,0,0,1,.44.69,3,3,0,0,1,.2.4.31.31,0,0,1-.09.36l-.27.23s0,.05,0,.09A2.22,2.22,0,0,0,131.36,66s.07,0,.1,0a3.33,3.33,0,0,1,.25-.28.3.3,0,0,1,.33-.07,2.23,2.23,0,0,1,.44.21c.22.13.43.27.64.41a.43.43,0,0,1,.13.17.24.24,0,0,1,0,.26,1.43,1.43,0,0,1-.2.23,4.24,4.24,0,0,1-.77.63A.46.46,0,0,1,132,67.63Z"/><text class="cls-14" transform="translate(135.68 112.91)">105, Senpa<tspan class="cls-13" x="29.45" y="0">r</tspan><tspan x="31.36" y="0">a </tspan><tspan class="cls-15" x="36.11" y="0">P</tspan><tspan x="39.86" y="0">arbota, </tspan><tspan x="0" y="7">Mirpur-10, Dhaka-1216</tspan></text><path class="cls-3" d="M131,108.78a1.55,1.55,0,0,1,.47.12,1.67,1.67,0,0,1,1,1.31,1.93,1.93,0,0,1-.11,1,5.55,5.55,0,0,1-.62,1.15c-.26.41-.55.79-.82,1.18a.15.15,0,0,1-.25,0c-.36-.53-.75-1-1.07-1.58a4,4,0,0,1-.45-1,1.72,1.72,0,0,1,1.45-2.13H131Zm-.16.28h-.08a1.4,1.4,0,0,0-1.29,1.74,3.23,3.23,0,0,0,.39.94,16.4,16.4,0,0,0,1,1.4s0,0,0,0c.28-.4.57-.78.82-1.19a4.31,4.31,0,0,0,.46-.94,1.58,1.58,0,0,0,.06-.86A1.4,1.4,0,0,0,130.86,109.06Z"/><path class="cls-3" d="M130.85,111.32a.86.86,0,0,1-.85-.86.86.86,0,1,1,.85.86Zm0-1.41a.56.56,0,0,0,0,1.12.54.54,0,0,0,.55-.56A.56.56,0,0,0,130.85,109.91Z"/><text class="cls-14" transform="translate(135.68 84.57)">iist.ecc@gmail.com</text><text class="cls-14" transform="translate(135.68 91.28)">bteb.<tspan class="cls-16" x="13.45" y="0">r</tspan><tspan x="15.42" y="0">eza@gmail.com</tspan></text><path class="cls-3" d="M133.42,84a.56.56,0,0,1-.13.24.5.5,0,0,1-.33.12h-4.21a.43.43,0,0,1-.45-.35.28.28,0,0,1,0-.09V81.22a.44.44,0,0,1,.44-.44H133a.45.45,0,0,1,.43.31.43.43,0,0,0,0,0Zm-4.59-2.94.14.15,1.54,1.53a.45.45,0,0,0,.5.13.44.44,0,0,0,.2-.13l1.59-1.59.09-.09Zm4.06,3-.1-.1-1.14-1.14s-.05,0-.08,0l-.19.19a.76.76,0,0,1-1,0l-.2-.19s0,0-.08,0L128.89,84l-.06.07Zm-4.29-.22,0,0,1.21-1.2s0,0,0-.09l-1.21-1.2,0,0Zm4.52-2.55,0,0-.8.79c-.14.14-.27.28-.42.41s0,0,0,.07l.12.11,1.1,1.09s0,0,0,0Z"/><text class="cls-14" transform="translate(135.68 102.15)">ww<tspan class="cls-17" x="9.02" y="0">w</tspan><tspan x="13.16" y="0">.iist-mirpu</tspan><tspan class="cls-18" x="39.78" y="0">r</tspan><tspan x="41.45" y="0">.edu.bd</tspan></text><path class="cls-3" d="M128.29,101.56v-.42a2,2,0,0,1,.07-.42,2.56,2.56,0,0,1,2.32-1.94,2.52,2.52,0,0,1,1.12.18,2.56,2.56,0,0,1,1.6,2.76,2.4,2.4,0,0,1-.39,1,2.56,2.56,0,0,1-1.46,1.08,3.86,3.86,0,0,1-.49.09h-.42l-.16,0a2.53,2.53,0,0,1-1-.39,2.59,2.59,0,0,1-1.07-1.46A2,2,0,0,1,128.29,101.56Zm1.92-.36h.43s.06,0,.06,0v-.67a0,0,0,0,0,0,0,6,6,0,0,1-.74,0c-.06,0-.08,0-.09.07a5.06,5.06,0,0,0-.09.68s0,.06.05.06Zm1.28,0h.42c.06,0,.06,0,.06-.07s0-.15,0-.22a2.67,2.67,0,0,0-.08-.48s0,0-.05,0a6.33,6.33,0,0,1-.76,0s-.05,0-.05.06v.64s0,.06.06.06S131.35,101.2,131.49,101.2Zm-2.48,0h.34c.06,0,.07,0,.07-.08a3.66,3.66,0,0,1,.1-.73s0-.06-.05-.06a3.89,3.89,0,0,1-.49-.12s-.08,0-.1,0a2.2,2.2,0,0,0-.28.9s0,0,.05,0Zm2.48.31h-.42s-.06,0-.06.06v.63s0,0,.05,0h.25c.17,0,.34,0,.51,0s.05,0,.05,0l0-.13a3.83,3.83,0,0,0,.07-.58s0,0-.05,0Zm-1.27,0h-.44s-.05,0-.05,0a4.91,4.91,0,0,0,.09.67c0,.07,0,.08.1.07.24,0,.48,0,.72-.05a.05.05,0,0,0,.06-.06v-.62a.05.05,0,0,0-.06-.06Zm2.48,0h-.35s-.07,0-.07.07a4.43,4.43,0,0,1-.09.72s0,.06.05.07.28.06.42.09.15,0,.21-.09a2.36,2.36,0,0,0,.23-.77c0-.08,0-.08-.08-.08Zm0-.31h.35s.06,0,0-.07v0a2.17,2.17,0,0,0-.27-.85s0,0-.07,0a3.81,3.81,0,0,1-.51.12c-.06,0-.06,0-.05.08a1.91,1.91,0,0,1,.06.33c0,.12,0,.24,0,.37s0,.08.08.08Zm-3.69.31h-.36s-.05,0-.05,0a2.36,2.36,0,0,0,.27.89s0,0,.07,0a5,5,0,0,1,.53-.12s.05,0,.05-.07a3.38,3.38,0,0,1-.1-.71s0-.07-.06-.07Zm2-1.89v.44c0,.06,0,.07.06.07l.37,0,.29,0s0,0,0,0a2,2,0,0,0-.34-.62.85.85,0,0,0-.36-.29s-.06,0-.05,0Zm-.31,3.44v-.43c0-.07,0-.07-.07-.07l-.66,0s0,0,0,.05a2.11,2.11,0,0,0,.41.69.69.69,0,0,0,.28.2c.06,0,.07,0,.07,0Zm0-3.44v-.44c0-.06,0-.07-.07,0a.83.83,0,0,0-.27.19,1.85,1.85,0,0,0-.41.7s0,0,0,0l.66,0a.05.05,0,0,0,.06-.06Zm.31,3.44v.44c0,.06,0,.07.06,0a.72.72,0,0,0,.29-.2,2.08,2.08,0,0,0,.4-.69s0,0,0-.05l-.68,0s0,0,0,0Zm-1,.38a2.67,2.67,0,0,1-.22-.36,2.14,2.14,0,0,1-.16-.39s0,0-.06,0-.29,0-.43.09,0,0,0,.06a2.13,2.13,0,0,0,.3.3A2.32,2.32,0,0,0,130,103.44Zm1.67,0h0a2.29,2.29,0,0,0,.87-.64s0,0,0,0l-.42-.1s0,0-.06,0A3,3,0,0,1,131.68,103.45Zm0-4.19v0a2.46,2.46,0,0,1,.37.72s0,0,.06,0a3,3,0,0,0,.43-.09s0,0,0,0a2.4,2.4,0,0,0-.4-.38A2.19,2.19,0,0,0,131.7,99.26Zm-1.7,0h0a2.25,2.25,0,0,0-.84.62s0,0,0,0a2.71,2.71,0,0,0,.41.09s.06,0,.07,0a2.5,2.5,0,0,1,.23-.5Z"/></svg>